<svg xmlns="http://www.w3.org/2000/svg" xmlns:xlink="http://www.w3.org/1999/xlink" contentStyleType="text/css" data-diagram-type="SEQUENCE" height="1413px" preserveAspectRatio="none" style="width:1519px;height:1413px;background:#FFFFFF;" version="1.1" viewBox="0 0 1519 1413" width="1519px" zoomAndPan="magnify"><defs/><g><g><title>RequireBluetooth</title><rect fill="#FFFFFF" height="1289.375" style="stroke:#181818;stroke-width:1;" width="10" x="204.9199" y="69.9609"/></g><g><title>DeviceEntryScreenNoViewModel</title><rect fill="#FFFFFF" height="1245.0234" style="stroke:#181818;stroke-width:1;" width="10" x="434.0488" y="100.3125"/></g><g><title>DeviceEntryBody</title><rect fill="#FFFFFF" height="1200.6719" style="stroke:#181818;stroke-width:1;" width="10" x="614.8379" y="130.6641"/></g><g><title>DeviceEntryBody</title><rect fill="#FFFFFF" height="220.5938" style="stroke:#181818;stroke-width:1;" width="10" x="619.8379" y="169.0156"/></g><g><title>DeviceEntryBody</title><rect fill="#FFFFFF" height="875.375" style="stroke:#181818;stroke-width:1;" width="10" x="619.8379" y="434.9609"/></g><g><title>DeviceEntryViewModel</title><rect fill="#FFFFFF" height="165.2422" style="stroke:#181818;stroke-width:1;" width="10" x="764.4995" y="204.3672"/></g><g><title>DeviceEntryViewModel</title><rect fill="#FFFFFF" height="513.4063" style="stroke:#181818;stroke-width:1;" width="10" x="764.4995" y="495.6641"/></g><g><title>DeviceEntryViewModel</title><rect fill="#FFFFFF" height="220.5938" style="stroke:#181818;stroke-width:1;" width="10" x="769.4995" y="751.125"/></g><g><title>DeviceEntryViewModel</title><rect fill="#FFFFFF" height="100.7031" style="stroke:#181818;stroke-width:1;" width="10" x="764.4995" y="1078.0938"/></g><g><title>DeviceEntryViewModel</title><rect fill="#FFFFFF" height="58.3516" style="stroke:#181818;stroke-width:1;" width="10" x="764.4995" y="1224.9844"/></g><g><title>NordicBleRepository</title><rect fill="#FFFFFF" height="74.7031" style="stroke:#181818;stroke-width:1;" width="10" x="1148.4292" y="569.3672"/></g><g><title>BleScanner</title><rect fill="#FFFFFF" height="30.3516" style="stroke:#181818;stroke-width:1;" width="10" x="1310.3281" y="599.7188"/></g><g><title>DeviceRepository</title><rect fill="#FFFFFF" height="30.3516" style="stroke:#181818;stroke-width:1;" width="10" x="1425.3726" y="786.4766"/></g><g><title>DeviceRepository</title><rect fill="#FFFFFF" height="14" style="stroke:#181818;stroke-width:1;" width="10" x="1425.3726" y="1255.3359"/></g><rect fill="none" height="120.8906" style="stroke:#000000;stroke-width:1.5;" width="369.7246" x="680.5273" y="219.3672"/><rect fill="none" height="836.375" style="stroke:#000000;stroke-width:1.5;" width="973.0791" x="539.1484" y="454.9609"/><rect fill="none" height="314.6484" style="stroke:#000000;stroke-width:1.5;" width="953.0791" x="549.1484" y="702.4219"/><rect fill="none" height="120.8906" style="stroke:#000000;stroke-width:1.5;" width="472.9019" x="680.5273" y="831.8281"/><g><title>DeviceEntryScreen</title><rect fill="#000000" fill-opacity="0.00000" height="1339.7266" width="8" x="67.9136" y="37.6094"/><line style="stroke:#181818;stroke-width:0.5;stroke-dasharray:5,5;" x1="71" x2="71" y1="37.6094" y2="1377.3359"/></g><g><title>RequireBluetooth</title><rect fill="#000000" fill-opacity="0.00000" height="1339.7266" width="8" x="205.9199" y="37.6094"/><line style="stroke:#181818;stroke-width:0.5;stroke-dasharray:5,5;" x1="209.8271" x2="209.8271" y1="37.6094" y2="1377.3359"/></g><g><title>DeviceEntryScreenNoViewModel</title><rect fill="#000000" fill-opacity="0.00000" height="1339.7266" width="8" x="435.0488" y="37.6094"/><line style="stroke:#181818;stroke-width:0.5;stroke-dasharray:5,5;" x1="438.9492" x2="438.9492" y1="37.6094" y2="1377.3359"/></g><g><title>DeviceEntryBody</title><rect fill="#000000" fill-opacity="0.00000" height="1339.7266" width="8" x="615.8379" y="37.6094"/><line style="stroke:#181818;stroke-width:0.5;stroke-dasharray:5,5;" x1="619.1484" x2="619.1484" y1="37.6094" y2="1377.3359"/></g><g><title>DeviceEntryViewModel</title><rect fill="#000000" fill-opacity="0.00000" height="1339.7266" width="8" x="765.4995" y="37.6094"/><line style="stroke:#181818;stroke-width:0.5;stroke-dasharray:5,5;" x1="768.5273" x2="768.5273" y1="37.6094" y2="1377.3359"/></g><g><title>NordicBleRepository</title><rect fill="#000000" fill-opacity="0.00000" height="1339.7266" width="8" x="1149.4292" y="37.6094"/><line style="stroke:#181818;stroke-width:0.5;stroke-dasharray:5,5;" x1="1152.626" x2="1152.626" y1="37.6094" y2="1377.3359"/></g><g><title>BleScanner</title><rect fill="#000000" fill-opacity="0.00000" height="1339.7266" width="8" x="1311.3281" y="37.6094"/><line style="stroke:#181818;stroke-width:0.5;stroke-dasharray:5,5;" x1="1315.1387" x2="1315.1387" y1="37.6094" y2="1377.3359"/></g><g><title>DeviceRepository</title><rect fill="#000000" fill-opacity="0.00000" height="1339.7266" width="8" x="1426.3726" y="37.6094"/><line style="stroke:#181818;stroke-width:0.5;stroke-dasharray:5,5;" x1="1429.5176" x2="1429.5176" y1="37.6094" y2="1377.3359"/></g><g class="participant participant-head" data-participant="DeviceEntryScreen"><rect fill="#E2E2F0" height="31.6094" rx="2.5" ry="2.5" style="stroke:#181818;stroke-width:0.5;" width="133.8271" x="5" y="5"/><text fill="#000000" font-family="sans-serif" font-size="14" lengthAdjust="spacing" textLength="119.8271" x="12" y="26.5332">DeviceEntryScreen</text></g><g class="participant participant-tail" data-participant="DeviceEntryScreen"><rect fill="#E2E2F0" height="31.6094" rx="2.5" ry="2.5" style="stroke:#181818;stroke-width:0.5;" width="133.8271" x="5" y="1376.3359"/><text fill="#000000" font-family="sans-serif" font-size="14" lengthAdjust="spacing" textLength="119.8271" x="12" y="1397.8691">DeviceEntryScreen</text></g><g class="participant participant-head" data-participant="RequireBluetooth"><rect fill="#E2E2F0" height="31.6094" rx="2.5" ry="2.5" style="stroke:#181818;stroke-width:0.5;" width="122.1855" x="148.8271" y="5"/><text fill="#000000" font-family="sans-serif" font-size="14" lengthAdjust="spacing" textLength="108.1855" x="155.8271" y="26.5332">RequireBluetooth</text></g><g class="participant participant-tail" data-participant="RequireBluetooth"><rect fill="#E2E2F0" height="31.6094" rx="2.5" ry="2.5" style="stroke:#181818;stroke-width:0.5;" width="122.1855" x="148.8271" y="1376.3359"/><text fill="#000000" font-family="sans-serif" font-size="14" lengthAdjust="spacing" textLength="108.1855" x="155.8271" y="1397.8691">RequireBluetooth</text></g><g class="participant participant-head" data-participant="DeviceEntryScreenNoViewModel"><rect fill="#E2E2F0" height="31.6094" rx="2.5" ry="2.5" style="stroke:#181818;stroke-width:0.5;" width="220.1992" x="328.9492" y="5"/><text fill="#000000" font-family="sans-serif" font-size="14" lengthAdjust="spacing" textLength="206.1992" x="335.9492" y="26.5332">DeviceEntryScreenNoViewModel</text></g><g class="participant participant-tail" data-participant="DeviceEntryScreenNoViewModel"><rect fill="#E2E2F0" height="31.6094" rx="2.5" ry="2.5" style="stroke:#181818;stroke-width:0.5;" width="220.1992" x="328.9492" y="1376.3359"/><text fill="#000000" font-family="sans-serif" font-size="14" lengthAdjust="spacing" textLength="206.1992" x="335.9492" y="1397.8691">DeviceEntryScreenNoViewModel</text></g><g class="participant participant-head" data-participant="DeviceEntryBody"><rect fill="#E2E2F0" height="31.6094" rx="2.5" ry="2.5" style="stroke:#181818;stroke-width:0.5;" width="121.3789" x="559.1484" y="5"/><text fill="#000000" font-family="sans-serif" font-size="14" lengthAdjust="spacing" textLength="107.3789" x="566.1484" y="26.5332">DeviceEntryBody</text></g><g class="participant participant-tail" data-participant="DeviceEntryBody"><rect fill="#E2E2F0" height="31.6094" rx="2.5" ry="2.5" style="stroke:#181818;stroke-width:0.5;" width="121.3789" x="559.1484" y="1376.3359"/><text fill="#000000" font-family="sans-serif" font-size="14" lengthAdjust="spacing" textLength="107.3789" x="566.1484" y="1397.8691">DeviceEntryBody</text></g><g class="participant participant-head" data-participant="DeviceEntryViewModel"><rect fill="#E2E2F0" height="31.6094" rx="2.5" ry="2.5" style="stroke:#181818;stroke-width:0.5;" width="157.9443" x="690.5273" y="5"/><text fill="#000000" font-family="sans-serif" font-size="14" lengthAdjust="spacing" textLength="143.9443" x="697.5273" y="26.5332">DeviceEntryViewModel</text></g><g class="participant participant-tail" data-participant="DeviceEntryViewModel"><rect fill="#E2E2F0" height="31.6094" rx="2.5" ry="2.5" style="stroke:#181818;stroke-width:0.5;" width="157.9443" x="690.5273" y="1376.3359"/><text fill="#000000" font-family="sans-serif" font-size="14" lengthAdjust="spacing" textLength="143.9443" x="697.5273" y="1397.8691">DeviceEntryViewModel</text></g><g class="participant participant-head" data-participant="NordicBleRepository"><rect fill="#E2E2F0" height="31.6094" rx="2.5" ry="2.5" style="stroke:#181818;stroke-width:0.5;" width="141.6064" x="1082.626" y="5"/><text fill="#000000" font-family="sans-serif" font-size="14" lengthAdjust="spacing" textLength="127.6064" x="1089.626" y="26.5332">NordicBleRepository</text></g><g class="participant participant-tail" data-participant="NordicBleRepository"><rect fill="#E2E2F0" height="31.6094" rx="2.5" ry="2.5" style="stroke:#181818;stroke-width:0.5;" width="141.6064" x="1082.626" y="1376.3359"/><text fill="#000000" font-family="sans-serif" font-size="14" lengthAdjust="spacing" textLength="127.6064" x="1089.626" y="1397.8691">NordicBleRepository</text></g><g class="participant participant-head" data-participant="BleScanner"><rect fill="#E2E2F0" height="31.6094" rx="2.5" ry="2.5" style="stroke:#181818;stroke-width:0.5;" width="86.3789" x="1272.1387" y="5"/><text fill="#000000" font-family="sans-serif" font-size="14" lengthAdjust="spacing" textLength="72.3789" x="1279.1387" y="26.5332">BleScanner</text></g><g class="participant participant-tail" data-participant="BleScanner"><rect fill="#E2E2F0" height="31.6094" rx="2.5" ry="2.5" style="stroke:#181818;stroke-width:0.5;" width="86.3789" x="1272.1387" y="1376.3359"/><text fill="#000000" font-family="sans-serif" font-size="14" lengthAdjust="spacing" textLength="72.3789" x="1279.1387" y="1397.8691">BleScanner</text></g><g class="participant participant-head" data-participant="DeviceRepository"><rect fill="#E2E2F0" height="31.6094" rx="2.5" ry="2.5" style="stroke:#181818;stroke-width:0.5;" width="123.71" x="1368.5176" y="5"/><text fill="#000000" font-family="sans-serif" font-size="14" lengthAdjust="spacing" textLength="109.71" x="1375.5176" y="26.5332">DeviceRepository</text></g><g class="participant participant-tail" data-participant="DeviceRepository"><rect fill="#E2E2F0" height="31.6094" rx="2.5" ry="2.5" style="stroke:#181818;stroke-width:0.5;" width="123.71" x="1368.5176" y="1376.3359"/><text fill="#000000" font-family="sans-serif" font-size="14" lengthAdjust="spacing" textLength="109.71" x="1375.5176" y="1397.8691">DeviceRepository</text></g><g><title>RequireBluetooth</title><rect fill="#FFFFFF" height="1289.375" style="stroke:#181818;stroke-width:1;" width="10" x="204.9199" y="69.9609"/></g><g><title>DeviceEntryScreenNoViewModel</title><rect fill="#FFFFFF" height="1245.0234" style="stroke:#181818;stroke-width:1;" width="10" x="434.0488" y="100.3125"/></g><g><title>DeviceEntryBody</title><rect fill="#FFFFFF" height="1200.6719" style="stroke:#181818;stroke-width:1;" width="10" x="614.8379" y="130.6641"/></g><g><title>DeviceEntryBody</title><rect fill="#FFFFFF" height="220.5938" style="stroke:#181818;stroke-width:1;" width="10" x="619.8379" y="169.0156"/></g><g><title>DeviceEntryBody</title><rect fill="#FFFFFF" height="875.375" style="stroke:#181818;stroke-width:1;" width="10" x="619.8379" y="434.9609"/></g><g><title>DeviceEntryViewModel</title><rect fill="#FFFFFF" height="165.2422" style="stroke:#181818;stroke-width:1;" width="10" x="764.4995" y="204.3672"/></g><g><title>DeviceEntryViewModel</title><rect fill="#FFFFFF" height="513.4063" style="stroke:#181818;stroke-width:1;" width="10" x="764.4995" y="495.6641"/></g><g><title>DeviceEntryViewModel</title><rect fill="#FFFFFF" height="220.5938" style="stroke:#181818;stroke-width:1;" width="10" x="769.4995" y="751.125"/></g><g><title>DeviceEntryViewModel</title><rect fill="#FFFFFF" height="100.7031" style="stroke:#181818;stroke-width:1;" width="10" x="764.4995" y="1078.0938"/></g><g><title>DeviceEntryViewModel</title><rect fill="#FFFFFF" height="58.3516" style="stroke:#181818;stroke-width:1;" width="10" x="764.4995" y="1224.9844"/></g><g><title>NordicBleRepository</title><rect fill="#FFFFFF" height="74.7031" style="stroke:#181818;stroke-width:1;" width="10" x="1148.4292" y="569.3672"/></g><g><title>BleScanner</title><rect fill="#FFFFFF" height="30.3516" style="stroke:#181818;stroke-width:1;" width="10" x="1310.3281" y="599.7188"/></g><g><title>DeviceRepository</title><rect fill="#FFFFFF" height="30.3516" style="stroke:#181818;stroke-width:1;" width="10" x="1425.3726" y="786.4766"/></g><g><title>DeviceRepository</title><rect fill="#FFFFFF" height="14" style="stroke:#181818;stroke-width:1;" width="10" x="1425.3726" y="1255.3359"/></g><g class="message" data-participant-1="DeviceEntryScreen" data-participant-2="RequireBluetooth"><polygon fill="#181818" points="192.9199,65.9609,202.9199,69.9609,192.9199,73.9609,196.9199,69.9609" style="stroke:#181818;stroke-width:1;"/><line style="stroke:#181818;stroke-width:1;" x1="71.9136" x2="198.9199" y1="69.9609" y2="69.9609"/><text fill="#000000" font-family="sans-serif" font-size="13" lengthAdjust="spacing" textLength="109.1162" x="78.9136" y="65.1045">RequireBluetooth()</text></g><g class="message" data-participant-1="RequireBluetooth" data-participant-2="DeviceEntryScreenNoViewModel"><polygon fill="#181818" points="422.0488,96.3125,432.0488,100.3125,422.0488,104.3125,426.0488,100.3125" style="stroke:#181818;stroke-width:1;"/><line style="stroke:#181818;stroke-width:1;" x1="214.9199" x2="428.0488" y1="100.3125" y2="100.3125"/><text fill="#000000" font-family="sans-serif" font-size="13" lengthAdjust="spacing" textLength="200.1289" x="221.9199" y="95.4561">DeviceEntryScreenNoViewModel()</text></g><g class="message" data-participant-1="DeviceEntryScreenNoViewModel" data-participant-2="DeviceEntryBody"><polygon fill="#181818" points="602.8379,126.6641,612.8379,130.6641,602.8379,134.6641,606.8379,130.6641" style="stroke:#181818;stroke-width:1;"/><line style="stroke:#181818;stroke-width:1;" x1="444.0488" x2="608.8379" y1="130.6641" y2="130.6641"/><text fill="#000000" font-family="sans-serif" font-size="13" lengthAdjust="spacing" textLength="108.3672" x="451.0488" y="125.8076">DeviceEntryBody()</text></g><g class="message" data-participant-1="DeviceEntryBody" data-participant-2="DeviceEntryBody"><line style="stroke:#181818;stroke-width:1;" x1="624.8379" x2="671.8379" y1="156.0156" y2="156.0156"/><line style="stroke:#181818;stroke-width:1;" x1="671.8379" x2="671.8379" y1="156.0156" y2="169.0156"/><line style="stroke:#181818;stroke-width:1;" x1="630.8379" x2="671.8379" y1="169.0156" y2="169.0156"/><polygon fill="#181818" points="640.8379,165.0156,630.8379,169.0156,640.8379,173.0156,636.8379,169.0156" style="stroke:#181818;stroke-width:1;"/><text fill="#000000" font-family="sans-serif" font-size="13" lengthAdjust="spacing" textLength="93.2471" x="636.8379" y="151.1592">onValueChange</text></g><g class="message" data-participant-1="DeviceEntryBody" data-participant-2="DeviceEntryViewModel"><polygon fill="#181818" points="752.4995,200.3672,762.4995,204.3672,752.4995,208.3672,756.4995,204.3672" style="stroke:#181818;stroke-width:1;"/><line style="stroke:#181818;stroke-width:1;" x1="629.8379" x2="758.4995" y1="204.3672" y2="204.3672"/><text fill="#000000" font-family="sans-serif" font-size="13" lengthAdjust="spacing" textLength="91.0508" x="636.8379" y="199.5107">updateUiState()</text></g><path d="M680.5273,219.3672 L740.6982,219.3672 L740.6982,227.7188 L730.6982,237.7188 L680.5273,237.7188 L680.5273,219.3672" fill="#EEEEEE" style="stroke:#000000;stroke-width:1.5;"/><rect fill="none" height="120.8906" style="stroke:#000000;stroke-width:1.5;" width="369.7246" x="680.5273" y="219.3672"/><text fill="#000000" font-family="sans-serif" font-size="13" font-weight="bold" lengthAdjust="spacing" textLength="15.1709" x="695.5273" y="233.8623">alt</text><text fill="#000000" font-family="sans-serif" font-size="11" font-weight="bold" lengthAdjust="spacing" textLength="103.3076" x="755.6982" y="232.7861">[sn &amp; pn valid case]</text><g class="message" data-participant-1="DeviceEntryViewModel" data-participant-2="DeviceEntryViewModel"><line style="stroke:#181818;stroke-width:1;" x1="774.4995" x2="816.4995" y1="260.0703" y2="260.0703"/><line style="stroke:#181818;stroke-width:1;" x1="816.4995" x2="816.4995" y1="260.0703" y2="273.0703"/><line style="stroke:#181818;stroke-width:1;" x1="775.4995" x2="816.4995" y1="273.0703" y2="273.0703"/><polygon fill="#181818" points="785.4995,269.0703,775.4995,273.0703,785.4995,277.0703,781.4995,273.0703" style="stroke:#181818;stroke-width:1;"/><text fill="#000000" font-family="sans-serif" font-size="13" lengthAdjust="spacing" textLength="246.7524" x="781.4995" y="255.2139">deviceUiState.entryState = ENTRY_VALID</text></g><line style="stroke:#000000;stroke-width:1;stroke-dasharray:2,2;" x1="680.5273" x2="1050.252" y1="282.0703" y2="282.0703"/><text fill="#000000" font-family="sans-serif" font-size="11" font-weight="bold" lengthAdjust="spacing" textLength="116.1392" x="685.5273" y="293.4893">[sn or pn invalid case]</text><g class="message" data-participant-1="DeviceEntryViewModel" data-participant-2="DeviceEntryViewModel"><line style="stroke:#181818;stroke-width:1;" x1="774.4995" x2="816.4995" y1="319.2578" y2="319.2578"/><line style="stroke:#181818;stroke-width:1;" x1="816.4995" x2="816.4995" y1="319.2578" y2="332.2578"/><line style="stroke:#181818;stroke-width:1;" x1="775.4995" x2="816.4995" y1="332.2578" y2="332.2578"/><polygon fill="#181818" points="785.4995,328.2578,775.4995,332.2578,785.4995,336.2578,781.4995,332.2578" style="stroke:#181818;stroke-width:1;"/><text fill="#000000" font-family="sans-serif" font-size="13" lengthAdjust="spacing" textLength="227.9443" x="781.4995" y="314.4014">deviceUiState.entryState = INPUTTING</text></g><g class="message" data-participant-1="DeviceEntryViewModel" data-participant-2="DeviceEntryBody"><polygon fill="#181818" points="640.8379,365.6094,630.8379,369.6094,640.8379,373.6094,636.8379,369.6094" style="stroke:#181818;stroke-width:1;"/><line style="stroke:#181818;stroke-width:1;stroke-dasharray:2,2;" x1="634.8379" x2="768.4995" y1="369.6094" y2="369.6094"/><text fill="#000000" font-family="sans-serif" font-size="13" lengthAdjust="spacing" textLength="80.209" x="646.8379" y="364.7529">deviceUiState</text></g><g class="message" data-participant-1="DeviceEntryBody" data-participant-2="DeviceEntryBody"><line style="stroke:#181818;stroke-width:1;stroke-dasharray:2,2;" x1="629.8379" x2="671.8379" y1="388.6094" y2="388.6094"/><line style="stroke:#181818;stroke-width:1;stroke-dasharray:2,2;" x1="671.8379" x2="671.8379" y1="388.6094" y2="401.6094"/><line style="stroke:#181818;stroke-width:1;stroke-dasharray:2,2;" x1="624.8379" x2="671.8379" y1="401.6094" y2="401.6094"/><polygon fill="#181818" points="634.8379,397.6094,624.8379,401.6094,634.8379,405.6094,630.8379,401.6094" style="stroke:#181818;stroke-width:1;"/></g><g class="message" data-participant-1="DeviceEntryBody" data-participant-2="DeviceEntryBody"><line style="stroke:#181818;stroke-width:1;" x1="624.8379" x2="671.8379" y1="421.9609" y2="421.9609"/><line style="stroke:#181818;stroke-width:1;" x1="671.8379" x2="671.8379" y1="421.9609" y2="434.9609"/><line style="stroke:#181818;stroke-width:1;" x1="630.8379" x2="671.8379" y1="434.9609" y2="434.9609"/><polygon fill="#181818" points="640.8379,430.9609,630.8379,434.9609,640.8379,438.9609,636.8379,434.9609" style="stroke:#181818;stroke-width:1;"/><text fill="#000000" font-family="sans-serif" font-size="13" lengthAdjust="spacing" textLength="88.8672" x="636.8379" y="417.1045">onButtonClick()</text></g><path d="M539.1484,454.9609 L599.3193,454.9609 L599.3193,463.3125 L589.3193,473.3125 L539.1484,473.3125 L539.1484,454.9609" fill="#EEEEEE" style="stroke:#000000;stroke-width:1.5;"/><rect fill="none" height="836.375" style="stroke:#000000;stroke-width:1.5;" width="973.0791" x="539.1484" y="454.9609"/><text fill="#000000" font-family="sans-serif" font-size="13" font-weight="bold" lengthAdjust="spacing" textLength="15.1709" x="554.1484" y="469.4561">alt</text><text fill="#000000" font-family="sans-serif" font-size="11" font-weight="bold" lengthAdjust="spacing" textLength="231.6821" x="614.3193" y="468.3799">[deviceUiState.entryState == ENTRY_VALID]</text><g class="message" data-participant-1="DeviceEntryBody" data-participant-2="DeviceEntryViewModel"><polygon fill="#181818" points="752.4995,491.6641,762.4995,495.6641,752.4995,499.6641,756.4995,495.6641" style="stroke:#181818;stroke-width:1;"/><line style="stroke:#181818;stroke-width:1;" x1="629.8379" x2="758.4995" y1="495.6641" y2="495.6641"/><text fill="#000000" font-family="sans-serif" font-size="13" lengthAdjust="spacing" textLength="75.8545" x="636.8379" y="490.8076">scanDevice()</text></g><g class="message" data-participant-1="DeviceEntryViewModel" data-participant-2="DeviceEntryViewModel"><line style="stroke:#181818;stroke-width:1;" x1="774.4995" x2="816.4995" y1="526.0156" y2="526.0156"/><line style="stroke:#181818;stroke-width:1;" x1="816.4995" x2="816.4995" y1="526.0156" y2="539.0156"/><line style="stroke:#181818;stroke-width:1;" x1="775.4995" x2="816.4995" y1="539.0156" y2="539.0156"/><polygon fill="#181818" points="785.4995,535.0156,775.4995,539.0156,785.4995,543.0156,781.4995,539.0156" style="stroke:#181818;stroke-width:1;"/><text fill="#000000" font-family="sans-serif" font-size="13" lengthAdjust="spacing" textLength="226.5098" x="781.4995" y="521.1592">deviceUiState.entryState = SCANNING</text></g><g class="message" data-participant-1="DeviceEntryViewModel" data-participant-2="NordicBleRepository"><polygon fill="#181818" points="1136.4292,565.3672,1146.4292,569.3672,1136.4292,573.3672,1140.4292,569.3672" style="stroke:#181818;stroke-width:1;"/><line style="stroke:#181818;stroke-width:1;" x1="774.4995" x2="1142.4292" y1="569.3672" y2="569.3672"/><text fill="#000000" font-family="sans-serif" font-size="13" lengthAdjust="spacing" textLength="181.7397" x="781.4995" y="564.5107">currentJob = getScannerState()</text></g><g class="message" data-participant-1="NordicBleRepository" data-participant-2="BleScanner"><polygon fill="#181818" points="1298.3281,595.7188,1308.3281,599.7188,1298.3281,603.7188,1302.3281,599.7188" style="stroke:#181818;stroke-width:1;"/><line style="stroke:#181818;stroke-width:1;" x1="1158.4292" x2="1304.3281" y1="599.7188" y2="599.7188"/><text fill="#000000" font-family="sans-serif" font-size="13" lengthAdjust="spacing" textLength="36.1182" x="1165.4292" y="594.8623">scan()</text></g><g class="message" data-participant-1="BleScanner" data-participant-2="NordicBleRepository"><polygon fill="#181818" points="1169.4292,626.0703,1159.4292,630.0703,1169.4292,634.0703,1165.4292,630.0703" style="stroke:#181818;stroke-width:1;"/><line style="stroke:#181818;stroke-width:1;stroke-dasharray:2,2;" x1="1163.4292" x2="1314.3281" y1="630.0703" y2="630.0703"/><text fill="#000000" font-family="sans-serif" font-size="13" lengthAdjust="spacing" textLength="127.8989" x="1175.4292" y="625.2139">Flow&lt;BleScanResult&gt;</text></g><g class="message" data-participant-1="NordicBleRepository" data-participant-2="DeviceEntryViewModel"><polygon fill="#181818" points="785.4995,640.0703,775.4995,644.0703,785.4995,648.0703,781.4995,644.0703" style="stroke:#181818;stroke-width:1;"/><line style="stroke:#181818;stroke-width:1;stroke-dasharray:2,2;" x1="779.4995" x2="1152.4292" y1="644.0703" y2="644.0703"/></g><g class="message" data-participant-1="DeviceEntryViewModel" data-participant-2="DeviceEntryViewModel"><line style="stroke:#181818;stroke-width:1;" x1="774.4995" x2="816.4995" y1="674.4219" y2="674.4219"/><line style="stroke:#181818;stroke-width:1;" x1="816.4995" x2="816.4995" y1="674.4219" y2="687.4219"/><line style="stroke:#181818;stroke-width:1;" x1="775.4995" x2="816.4995" y1="687.4219" y2="687.4219"/><polygon fill="#181818" points="785.4995,683.4219,775.4995,687.4219,785.4995,691.4219,781.4995,687.4219" style="stroke:#181818;stroke-width:1;"/><text fill="#000000" font-family="sans-serif" font-size="13" lengthAdjust="spacing" textLength="246.397" x="781.4995" y="669.5654">filter on ServiceData and hexSerialNumber</text></g><path d="M549.1484,702.4219 L609.3193,702.4219 L609.3193,710.7734 L599.3193,720.7734 L549.1484,720.7734 L549.1484,702.4219" fill="#EEEEEE" style="stroke:#000000;stroke-width:1.5;"/><rect fill="none" height="314.6484" style="stroke:#000000;stroke-width:1.5;" width="953.0791" x="549.1484" y="702.4219"/><text fill="#000000" font-family="sans-serif" font-size="13" font-weight="bold" lengthAdjust="spacing" textLength="15.1709" x="564.1484" y="716.917">alt</text><text fill="#000000" font-family="sans-serif" font-size="11" font-weight="bold" lengthAdjust="spacing" textLength="84.9438" x="624.3193" y="715.8408">[if device found]</text><g class="message" data-participant-1="DeviceEntryViewModel" data-participant-2="DeviceEntryViewModel"><line style="stroke:#181818;stroke-width:1;" x1="774.4995" x2="821.4995" y1="738.125" y2="738.125"/><line style="stroke:#181818;stroke-width:1;" x1="821.4995" x2="821.4995" y1="738.125" y2="751.125"/><line style="stroke:#181818;stroke-width:1;" x1="780.4995" x2="821.4995" y1="751.125" y2="751.125"/><polygon fill="#181818" points="790.4995,747.125,780.4995,751.125,790.4995,755.125,786.4995,751.125" style="stroke:#181818;stroke-width:1;"/><text fill="#000000" font-family="sans-serif" font-size="13" lengthAdjust="spacing" textLength="82.3926" x="786.4995" y="733.2686">updateUiState</text></g><g class="message" data-participant-1="DeviceEntryViewModel" data-participant-2="DeviceRepository"><polygon fill="#181818" points="1413.3726,782.4766,1423.3726,786.4766,1413.3726,790.4766,1417.3726,786.4766" style="stroke:#181818;stroke-width:1;"/><line style="stroke:#181818;stroke-width:1;" x1="779.4995" x2="1419.3726" y1="786.4766" y2="786.4766"/><text fill="#000000" font-family="sans-serif" font-size="13" lengthAdjust="spacing" textLength="62.1309" x="786.4995" y="781.6201">canInsert()</text></g><g class="message" data-participant-1="DeviceRepository" data-participant-2="DeviceEntryViewModel"><polygon fill="#181818" points="790.4995,812.8281,780.4995,816.8281,790.4995,820.8281,786.4995,816.8281" style="stroke:#181818;stroke-width:1;"/><line style="stroke:#181818;stroke-width:1;stroke-dasharray:2,2;" x1="784.4995" x2="1429.3726" y1="816.8281" y2="816.8281"/><text fill="#000000" font-family="sans-serif" font-size="13" lengthAdjust="spacing" textLength="60.7026" x="796.4995" y="811.9717">canInsert?</text></g><path d="M680.5273,831.8281 L740.6982,831.8281 L740.6982,840.1797 L730.6982,850.1797 L680.5273,850.1797 L680.5273,831.8281" fill="#EEEEEE" style="stroke:#000000;stroke-width:1.5;"/><rect fill="none" height="120.8906" style="stroke:#000000;stroke-width:1.5;" width="472.9019" x="680.5273" y="831.8281"/><text fill="#000000" font-family="sans-serif" font-size="13" font-weight="bold" lengthAdjust="spacing" textLength="15.1709" x="695.5273" y="846.3232">alt</text><text fill="#000000" font-family="sans-serif" font-size="11" font-weight="bold" lengthAdjust="spacing" textLength="56.2354" x="755.6982" y="845.2471">[canInsert]</text><g class="message" data-participant-1="DeviceEntryViewModel" data-participant-2="DeviceEntryViewModel"><line style="stroke:#181818;stroke-width:1;" x1="779.4995" x2="821.4995" y1="872.5313" y2="872.5313"/><line style="stroke:#181818;stroke-width:1;" x1="821.4995" x2="821.4995" y1="872.5313" y2="885.5313"/><line style="stroke:#181818;stroke-width:1;" x1="780.4995" x2="821.4995" y1="885.5313" y2="885.5313"/><polygon fill="#181818" points="790.4995,881.5313,780.4995,885.5313,790.4995,889.5313,786.4995,885.5313" style="stroke:#181818;stroke-width:1;"/><text fill="#000000" font-family="sans-serif" font-size="13" lengthAdjust="spacing" textLength="259.7397" x="786.4995" y="867.6748">deviceUiState.entryState = DEVICE_FOUND</text></g><line style="stroke:#000000;stroke-width:1;stroke-dasharray:2,2;" x1="680.5273" x2="1153.4292" y1="894.5313" y2="894.5313"/><text fill="#000000" font-family="sans-serif" font-size="11" font-weight="bold" lengthAdjust="spacing" textLength="59.8984" x="685.5273" y="905.9502">[!canInsert]</text><g class="message" data-participant-1="DeviceEntryViewModel" data-participant-2="DeviceEntryViewModel"><line style="stroke:#181818;stroke-width:1;" x1="779.4995" x2="821.4995" y1="931.7188" y2="931.7188"/><line style="stroke:#181818;stroke-width:1;" x1="821.4995" x2="821.4995" y1="931.7188" y2="944.7188"/><line style="stroke:#181818;stroke-width:1;" x1="780.4995" x2="821.4995" y1="944.7188" y2="944.7188"/><polygon fill="#181818" points="790.4995,940.7188,780.4995,944.7188,790.4995,948.7188,786.4995,944.7188" style="stroke:#181818;stroke-width:1;"/><text fill="#000000" font-family="sans-serif" font-size="13" lengthAdjust="spacing" textLength="339.9297" x="786.4995" y="926.8623">deviceUiState.entryState = DUPLICATE_DEVICE_FOUND</text></g><g class="message" data-participant-1="DeviceEntryViewModel" data-participant-2="DeviceEntryViewModel"><line style="stroke:#181818;stroke-width:1;stroke-dasharray:2,2;" x1="779.4995" x2="821.4995" y1="970.7188" y2="970.7188"/><line style="stroke:#181818;stroke-width:1;stroke-dasharray:2,2;" x1="821.4995" x2="821.4995" y1="970.7188" y2="983.7188"/><line style="stroke:#181818;stroke-width:1;stroke-dasharray:2,2;" x1="774.4995" x2="821.4995" y1="983.7188" y2="983.7188"/><polygon fill="#181818" points="784.4995,979.7188,774.4995,983.7188,784.4995,987.7188,780.4995,983.7188" style="stroke:#181818;stroke-width:1;"/></g><g class="message" data-participant-1="DeviceEntryViewModel" data-participant-2="DeviceEntryBody"><polygon fill="#181818" points="640.8379,1005.0703,630.8379,1009.0703,640.8379,1013.0703,636.8379,1009.0703" style="stroke:#181818;stroke-width:1;"/><line style="stroke:#181818;stroke-width:1;stroke-dasharray:2,2;" x1="634.8379" x2="768.4995" y1="1009.0703" y2="1009.0703"/><text fill="#000000" font-family="sans-serif" font-size="13" lengthAdjust="spacing" textLength="80.209" x="646.8379" y="1004.2139">deviceUiState</text></g><line style="stroke:#000000;stroke-width:1;stroke-dasharray:2,2;" x1="539.1484" x2="1512.2275" y1="1025.0703" y2="1025.0703"/><text fill="#000000" font-family="sans-serif" font-size="11" font-weight="bold" lengthAdjust="spacing" textLength="214.5591" x="544.1484" y="1036.4893">[deviceUiState.entryState == INPUTTING]</text><line style="stroke:#000000;stroke-width:1;stroke-dasharray:2,2;" x1="539.1484" x2="1512.2275" y1="1040.9063" y2="1040.9063"/><text fill="#000000" font-family="sans-serif" font-size="11" font-weight="bold" lengthAdjust="spacing" textLength="413.832" x="544.1484" y="1052.3252">[deviceUiState.entryState == SCANNING or DUPLICATE_DEVICE_FOUND case]</text><g class="message" data-participant-1="DeviceEntryBody" data-participant-2="DeviceEntryViewModel"><polygon fill="#181818" points="752.4995,1074.0938,762.4995,1078.0938,752.4995,1082.0938,756.4995,1078.0938" style="stroke:#181818;stroke-width:1;"/><line style="stroke:#181818;stroke-width:1;" x1="629.8379" x2="758.4995" y1="1078.0938" y2="1078.0938"/><text fill="#000000" font-family="sans-serif" font-size="13" lengthAdjust="spacing" textLength="115.6035" x="636.8379" y="1073.2373">cancelScanDevice()</text></g><g class="message" data-participant-1="DeviceEntryViewModel" data-participant-2="DeviceEntryViewModel"><line style="stroke:#181818;stroke-width:1;" x1="774.4995" x2="816.4995" y1="1108.4453" y2="1108.4453"/><line style="stroke:#181818;stroke-width:1;" x1="816.4995" x2="816.4995" y1="1108.4453" y2="1121.4453"/><line style="stroke:#181818;stroke-width:1;" x1="775.4995" x2="816.4995" y1="1121.4453" y2="1121.4453"/><polygon fill="#181818" points="785.4995,1117.4453,775.4995,1121.4453,785.4995,1125.4453,781.4995,1121.4453" style="stroke:#181818;stroke-width:1;"/><text fill="#000000" font-family="sans-serif" font-size="13" lengthAdjust="spacing" textLength="246.7524" x="781.4995" y="1103.5889">deviceUiState.entryState = ENTRY_VALID</text></g><g class="message" data-participant-1="DeviceEntryViewModel" data-participant-2="DeviceEntryViewModel"><line style="stroke:#181818;stroke-width:1;" x1="774.4995" x2="816.4995" y1="1151.7969" y2="1151.7969"/><line style="stroke:#181818;stroke-width:1;" x1="816.4995" x2="816.4995" y1="1151.7969" y2="1164.7969"/><line style="stroke:#181818;stroke-width:1;" x1="775.4995" x2="816.4995" y1="1164.7969" y2="1164.7969"/><polygon fill="#181818" points="785.4995,1160.7969,775.4995,1164.7969,785.4995,1168.7969,781.4995,1164.7969" style="stroke:#181818;stroke-width:1;"/><text fill="#000000" font-family="sans-serif" font-size="13" lengthAdjust="spacing" textLength="111.2681" x="781.4995" y="1146.9404">currentJob.cancel()</text></g><g class="message" data-participant-1="DeviceEntryViewModel" data-participant-2="DeviceEntryBody"><polygon fill="#181818" points="640.8379,1174.7969,630.8379,1178.7969,640.8379,1182.7969,636.8379,1178.7969" style="stroke:#181818;stroke-width:1;"/><line style="stroke:#181818;stroke-width:1;stroke-dasharray:2,2;" x1="634.8379" x2="768.4995" y1="1178.7969" y2="1178.7969"/></g><line style="stroke:#000000;stroke-width:1;stroke-dasharray:2,2;" x1="539.1484" x2="1512.2275" y1="1187.7969" y2="1187.7969"/><text fill="#000000" font-family="sans-serif" font-size="11" font-weight="bold" lengthAdjust="spacing" textLength="241.4629" x="544.1484" y="1199.2158">[deviceUiState.entryState == DEVICE_FOUND]</text><g class="message" data-participant-1="DeviceEntryBody" data-participant-2="DeviceEntryViewModel"><polygon fill="#181818" points="752.4995,1220.9844,762.4995,1224.9844,752.4995,1228.9844,756.4995,1224.9844" style="stroke:#181818;stroke-width:1;"/><line style="stroke:#181818;stroke-width:1;" x1="629.8379" x2="758.4995" y1="1224.9844" y2="1224.9844"/><text fill="#000000" font-family="sans-serif" font-size="13" lengthAdjust="spacing" textLength="75.8545" x="636.8379" y="1220.1279">saveDevice()</text></g><g class="message" data-participant-1="DeviceEntryViewModel" data-participant-2="DeviceRepository"><polygon fill="#181818" points="1413.3726,1251.3359,1423.3726,1255.3359,1413.3726,1259.3359,1417.3726,1255.3359" style="stroke:#181818;stroke-width:1;"/><line style="stroke:#181818;stroke-width:1;" x1="774.4995" x2="1419.3726" y1="1255.3359" y2="1255.3359"/><text fill="#000000" font-family="sans-serif" font-size="13" lengthAdjust="spacing" textLength="80.1836" x="781.4995" y="1250.4795">insertDevice()</text></g><g class="message" data-participant-1="DeviceRepository" data-participant-2="DeviceEntryViewModel"><polygon fill="#181818" points="785.4995,1265.3359,775.4995,1269.3359,785.4995,1273.3359,781.4995,1269.3359" style="stroke:#181818;stroke-width:1;"/><line style="stroke:#181818;stroke-width:1;stroke-dasharray:2,2;" x1="779.4995" x2="1429.3726" y1="1269.3359" y2="1269.3359"/></g><g class="message" data-participant-1="DeviceEntryViewModel" data-participant-2="DeviceEntryBody"><polygon fill="#181818" points="640.8379,1279.3359,630.8379,1283.3359,640.8379,1287.3359,636.8379,1283.3359" style="stroke:#181818;stroke-width:1;"/><line style="stroke:#181818;stroke-width:1;stroke-dasharray:2,2;" x1="634.8379" x2="768.4995" y1="1283.3359" y2="1283.3359"/></g><g class="message" data-participant-1="DeviceEntryBody" data-participant-2="DeviceEntryBody"><line style="stroke:#181818;stroke-width:1;stroke-dasharray:2,2;" x1="629.8379" x2="671.8379" y1="1309.3359" y2="1309.3359"/><line style="stroke:#181818;stroke-width:1;stroke-dasharray:2,2;" x1="671.8379" x2="671.8379" y1="1309.3359" y2="1322.3359"/><line style="stroke:#181818;stroke-width:1;stroke-dasharray:2,2;" x1="624.8379" x2="671.8379" y1="1322.3359" y2="1322.3359"/><polygon fill="#181818" points="634.8379,1318.3359,624.8379,1322.3359,634.8379,1326.3359,630.8379,1322.3359" style="stroke:#181818;stroke-width:1;"/></g><g class="message" data-participant-1="DeviceEntryBody" data-participant-2="DeviceEntryScreenNoViewModel"><polygon fill="#181818" points="455.0488,1327.3359,445.0488,1331.3359,455.0488,1335.3359,451.0488,1331.3359" style="stroke:#181818;stroke-width:1;"/><line style="stroke:#181818;stroke-width:1;stroke-dasharray:2,2;" x1="449.0488" x2="618.8379" y1="1331.3359" y2="1331.3359"/></g><g class="message" data-participant-1="DeviceEntryScreenNoViewModel" data-participant-2="RequireBluetooth"><polygon fill="#181818" points="225.9199,1341.3359,215.9199,1345.3359,225.9199,1349.3359,221.9199,1345.3359" style="stroke:#181818;stroke-width:1;"/><line style="stroke:#181818;stroke-width:1;stroke-dasharray:2,2;" x1="219.9199" x2="438.0488" y1="1345.3359" y2="1345.3359"/></g><g class="message" data-participant-1="RequireBluetooth" data-participant-2="DeviceEntryScreen"><polygon fill="#181818" points="82.9136,1355.3359,72.9136,1359.3359,82.9136,1363.3359,78.9136,1359.3359" style="stroke:#181818;stroke-width:1;"/><line style="stroke:#181818;stroke-width:1;stroke-dasharray:2,2;" x1="76.9136" x2="208.9199" y1="1359.3359" y2="1359.3359"/></g><!--SRC=[nLN1Kjim4BthAzGB0uVo0PcMJcARZXbGcJZ93AUCi3T4Woe5MGxbxoiPnR5ZsN4B32VRgzLxg_TMwn2sB8L8QFMIf0f0uAyNU0fF1LCmuGLeAVKQZrgXqpD4KyssL4Dh3RNs6ypma8Z81OFd6va1D_XzotMklZpKoz6iOIApbz5Xe8F8Bg63Ro-S50jgpXoigNY0_uMgAXxXOfEP_NEMQFCuFSDUoFtnATSu5_W4RmJUKiuodD8Sa2-tcpCheuxp74ejxIl-ZYCoczuj5-FhE4J0Sx1aKbas9Zw2BoQtyzai9ZyHY0mfq8KIpNmN76ZEfD1QYe2pzB7FQIjZTrLD6GPQQHeyJwbuNUhWzhRnsmHCWZ4XLhykH29Lnj89XobiPCwqL4Qej53Am5p9UmFn03enbGjGhWdtjNis8q_CyfY0Gt5Ar77sYpkFBxby_kR2KyWBhYyyJW_GPiMuDfnIu0IKJGYfffYA3A_XZmanoadn-zumbwwpbLCJhsHXMkvVoF31TNsJnmqxg8X53agt-wOcl5EkIlvH7gZwVB-U2gD574JBorzpugR0buzWcTzUny5u5YsRVCQKVbrtVUAT5dPxMNBVzQvDdMEfk_jbfw2_ujP4F38bZ9GfyEGJPaN7L1i0kfyNvw_bcwAT2qSLRBWx-B-OqosyYpxrUyRA5kw2RLsrweZLhydx-0i0]--></g></svg>