<svg xmlns="http://www.w3.org/2000/svg" xmlns:xlink="http://www.w3.org/1999/xlink" contentStyleType="text/css" data-diagram-type="STATE" height="587px" preserveAspectRatio="none" style="width:608px;height:587px;background:#FFFFFF;" version="1.1" viewBox="0 0 608 587" width="608px" zoomAndPan="magnify"><defs/><g><path d="M19.5,7 L582.1525,7 A12.5,12.5 0 0 1 594.6525,19.5 L594.6525,34.6094 L7,34.6094 L7,19.5 A12.5,12.5 0 0 1 19.5,7" fill="#F1F1F1"/><rect fill="none" height="574.6094" rx="12.5" ry="12.5" style="stroke:#181818;stroke-width:0.5;" width="587.6525" x="7" y="7"/><line style="stroke:#181818;stroke-width:0.5;" x1="7" x2="594.6525" y1="34.6094" y2="34.6094"/><text fill="#000000" font-family="sans-serif" font-size="14" lengthAdjust="spacing" textLength="65.3652" x="268.1436" y="26.5332">EntryState</text><g id="EntryState.ANYSTATE"><rect fill="#F1F1F1" height="50" rx="12.5" ry="12.5" style="stroke:#181818;stroke-width:0.5;" width="50" x="265.84" y="46.6094"/><line style="stroke:#181818;stroke-width:0.5;" x1="265.84" x2="315.84" y1="74.2188" y2="74.2188"/><text fill="#000000" font-family="sans-serif" font-size="14" lengthAdjust="spacing" textLength="5.4482" x="288.1159" y="66.1426">*</text></g><ellipse cx="436.84" cy="71.6094" fill="#222222" rx="10" ry="10" style="stroke:#222222;stroke-width:1;"/><g id="EntryState.INPUTTING"><rect fill="#F1F1F1" height="50" rx="12.5" ry="12.5" style="stroke:#181818;stroke-width:0.5;" width="95.4414" x="389.12" y="150.6094"/><line style="stroke:#181818;stroke-width:0.5;" x1="389.12" x2="484.5614" y1="178.2188" y2="178.2188"/><text fill="#000000" font-family="sans-serif" font-size="14" lengthAdjust="spacing" textLength="75.4414" x="399.12" y="170.1426">INPUTTING</text></g><g id="EntryState.ENTRY_VALID"><rect fill="#F1F1F1" height="50" rx="12.5" ry="12.5" style="stroke:#181818;stroke-width:0.5;" width="115.6963" x="227.99" y="237.6094"/><line style="stroke:#181818;stroke-width:0.5;" x1="227.99" x2="343.6863" y1="265.2188" y2="265.2188"/><text fill="#000000" font-family="sans-serif" font-size="14" lengthAdjust="spacing" textLength="95.6963" x="237.99" y="257.1426">ENTRY_VALID</text></g><g id="EntryState.SCANNING"><rect fill="#F1F1F1" height="50" rx="12.5" ry="12.5" style="stroke:#181818;stroke-width:0.5;" width="93.8965" x="146.89" y="341.6094"/><line style="stroke:#181818;stroke-width:0.5;" x1="146.89" x2="240.7865" y1="369.2188" y2="369.2188"/><text fill="#000000" font-family="sans-serif" font-size="14" lengthAdjust="spacing" textLength="73.8965" x="156.89" y="361.1426">SCANNING</text></g><g id="EntryState.DEVICE_FOUND"><rect fill="#F1F1F1" height="50" rx="12.5" ry="12.5" style="stroke:#181818;stroke-width:0.5;" width="129.6826" x="19" y="445.6094"/><line style="stroke:#181818;stroke-width:0.5;" x1="19" x2="148.6826" y1="473.2188" y2="473.2188"/><text fill="#000000" font-family="sans-serif" font-size="14" lengthAdjust="spacing" textLength="109.6826" x="29" y="465.1426">DEVICE_FOUND</text></g><ellipse cx="83.84" cy="560.6094" fill="none" rx="11" ry="11" style="stroke:#222222;stroke-width:1;"/><ellipse cx="83.84" cy="560.6094" fill="#222222" rx="6" ry="6" style="stroke:#222222;stroke-width:1;"/><g id="EntryState.DUPLICATE_DEVICE_FOUND"><rect fill="#F1F1F1" height="50" rx="12.5" ry="12.5" style="stroke:#181818;stroke-width:0.5;" width="216.041" x="249.82" y="445.6094"/><line style="stroke:#181818;stroke-width:0.5;" x1="249.82" x2="465.861" y1="473.2188" y2="473.2188"/><text fill="#000000" font-family="sans-serif" font-size="14" lengthAdjust="spacing" textLength="196.041" x="259.82" y="465.1426">DUPLICATE_DEVICE_FOUND</text></g><!--link *start*EntryState to INPUTTING--><g class="link" data-entity-1=".start.EntryState" data-entity-2="INPUTTING" data-source-line="4" data-uid="lnk4" id="link_.start.EntryState_INPUTTING"><path d="M436.84,82.0194 C436.84,97.4094 436.84,122.4294 436.84,144.3094" fill="none" id="*start*EntryState-to-INPUTTING" style="stroke:#181818;stroke-width:1;"/><polygon fill="#181818" points="436.84,150.3094,440.84,141.3094,436.84,145.3094,432.84,141.3094,436.84,150.3094" style="stroke:#181818;stroke-width:1;"/></g><!--link INPUTTING to ENTRY_VALID--><g class="link" data-entity-1="INPUTTING" data-entity-2="ENTRY_VALID" data-source-line="5" data-uid="lnk6" id="link_INPUTTING_ENTRY_VALID"><path d="M393.57,200.9694 C373.35,212.3494 354.5688,222.9266 334.3488,234.3066" fill="none" id="INPUTTING-to-ENTRY_VALID" style="stroke:#181818;stroke-width:1;"/><polygon fill="#181818" points="329.12,237.2494,338.925,236.321,333.4773,234.797,335.0013,229.3493,329.12,237.2494" style="stroke:#181818;stroke-width:1;"/></g><!--link ENTRY_VALID to SCANNING--><g class="link" data-entity-1="ENTRY_VALID" data-entity-2="SCANNING" data-source-line="6" data-uid="lnk8" id="link_ENTRY_VALID_SCANNING"><path d="M227.78,266.1394 C199.47,270.6694 167.74,281.3494 149.84,305.6094 C141.18,317.3594 144.4472,326.2173 155.5972,337.1573" fill="none" id="ENTRY_VALID-to-SCANNING" style="stroke:#181818;stroke-width:1;"/><polygon fill="#181818" points="159.88,341.3594,156.2572,332.201,156.311,337.8576,150.6544,337.9114,159.88,341.3594" style="stroke:#181818;stroke-width:1;"/><text fill="#000000" font-family="sans-serif" font-size="13" lengthAdjust="spacing" textLength="112.7344" x="150.84" y="320.1045">Scan Device button</text></g><!--link SCANNING to DEVICE_FOUND--><g class="link" data-entity-1="SCANNING" data-entity-2="DEVICE_FOUND" data-source-line="7" data-uid="lnk10" id="link_SCANNING_DEVICE_FOUND"><path d="M146.6,373.5494 C124.01,379.0094 98.9,389.4894 84.84,409.6094 C77.74,419.7694 76.3892,427.4837 77.6492,439.2137" fill="none" id="SCANNING-to-DEVICE_FOUND" style="stroke:#181818;stroke-width:1;"/><polygon fill="#181818" points="78.29,445.1794,81.3059,435.8036,77.756,440.208,73.3517,436.6581,78.29,445.1794" style="stroke:#181818;stroke-width:1;"/><text fill="#000000" font-family="sans-serif" font-size="13" lengthAdjust="spacing" textLength="130.0825" x="85.84" y="424.1045">matching device found</text></g><!--link DEVICE_FOUND to *end*EntryState--><g class="link" data-entity-1="DEVICE_FOUND" data-entity-2=".end.EntryState" data-source-line="8" data-uid="lnk12" id="link_DEVICE_FOUND_.end.EntryState"><path d="M83.84,495.6594 C83.84,513.1594 83.84,530.0094 83.84,543.1294" fill="none" id="DEVICE_FOUND-to-*end*EntryState" style="stroke:#181818;stroke-width:1;"/><polygon fill="#181818" points="83.84,549.1294,87.84,540.1294,83.84,544.1294,79.84,540.1294,83.84,549.1294" style="stroke:#181818;stroke-width:1;"/><text fill="#000000" font-family="sans-serif" font-size="13" lengthAdjust="spacing" textLength="112.7344" x="84.84" y="528.1045">Save Device button</text></g><!--link SCANNING to DUPLICATE_DEVICE_FOUND--><g class="link" data-entity-1="SCANNING" data-entity-2="DUPLICATE_DEVICE_FOUND" data-source-line="9" data-uid="lnk14" id="link_SCANNING_DUPLICATE_DEVICE_FOUND"><path d="M207.82,391.9694 C215.84,404.1194 226.9,418.1794 239.84,427.6094 C249.25,434.4594 254.3988,437.8166 265.3288,442.7366" fill="none" id="SCANNING-to-DUPLICATE_DEVICE_FOUND" style="stroke:#181818;stroke-width:1;"/><polygon fill="#181818" points="270.8,445.1994,264.235,437.8577,266.2406,443.147,260.9513,445.1527,270.8,445.1994" style="stroke:#181818;stroke-width:1;"/><text fill="#000000" font-family="sans-serif" font-size="13" lengthAdjust="spacing" textLength="185.7324" x="240.84" y="424.1045">duplicate matching device found</text></g><!--link SCANNING to ENTRY_VALID--><g class="link" data-entity-1="SCANNING" data-entity-2="ENTRY_VALID" data-source-line="10" data-uid="lnk15" id="link_SCANNING_ENTRY_VALID"><path d="M240.99,343.4194 C249.42,337.8594 257.52,331.2594 263.84,323.6094 C272.25,313.4394 275.9692,305.5235 279.2792,293.8035" fill="none" id="SCANNING-to-ENTRY_VALID" style="stroke:#181818;stroke-width:1;"/><polygon fill="#181818" points="280.91,288.0294,274.6145,295.6034,279.551,292.8412,282.3133,297.7777,280.91,288.0294" style="stroke:#181818;stroke-width:1;"/><text fill="#000000" font-family="sans-serif" font-size="13" lengthAdjust="spacing" textLength="138.0425" x="275.56" y="320.1045">Cancel Scanning button</text></g><!--link DUPLICATE_DEVICE_FOUND to ENTRY_VALID--><g class="link" data-entity-1="DUPLICATE_DEVICE_FOUND" data-entity-2="ENTRY_VALID" data-source-line="11" data-uid="lnk16" id="link_DUPLICATE_DEVICE_FOUND_ENTRY_VALID"><path d="M411.34,445.2994 C417.53,440.3194 422.99,434.4594 426.84,427.6094 C453.46,380.2394 452.62,348.1694 418.84,305.6094 C400.93,283.0394 376.8315,273.4621 349.8515,268.5121" fill="none" id="DUPLICATE_DEVICE_FOUND-to-ENTRY_VALID" style="stroke:#181818;stroke-width:1;"/><polygon fill="#181818" points="343.95,267.4294,352.0804,272.9878,348.8679,268.3317,353.5241,265.1192,343.95,267.4294" style="stroke:#181818;stroke-width:1;"/><text fill="#000000" font-family="sans-serif" font-size="13" lengthAdjust="spacing" textLength="138.0425" x="446.61" y="372.1045">Cancel Scanning button</text></g><!--link ANYSTATE to INPUTTING--><g class="link" data-entity-1="ANYSTATE" data-entity-2="INPUTTING" data-source-line="12" data-uid="lnk17" id="link_ANYSTATE_INPUTTING"><path d="M299.86,96.9794 C305.43,109.1294 313.67,123.1994 324.84,132.6094 C342.9,147.8294 352.72,142.3494 374.84,150.6094 C379.38,152.3094 378.4938,151.9514 383.2138,153.7514" fill="none" id="ANYSTATE-to-INPUTTING" style="stroke:#181818;stroke-width:1;"/><polygon fill="#181818" points="388.82,155.8894,381.836,148.945,384.1482,154.1078,378.9854,156.4199,388.82,155.8894" style="stroke:#181818;stroke-width:1;"/><text fill="#000000" font-family="sans-serif" font-size="13" lengthAdjust="spacing" textLength="106.9326" x="325.84" y="129.1045">SN or PN not valid</text></g><!--link ANYSTATE to ENTRY_VALID--><g class="link" data-entity-1="ANYSTATE" data-entity-2="ENTRY_VALID" data-source-line="13" data-uid="lnk18" id="link_ANYSTATE_ENTRY_VALID"><path d="M287.72,96.7994 C285.89,112.1794 283.77,132.5294 282.84,150.6094 C281.71,172.7994 282.3,178.3894 282.84,200.6094 C283.14,212.6894 283.4482,220.118 284.0482,231.288" fill="none" id="ANYSTATE-to-ENTRY_VALID" style="stroke:#181818;stroke-width:1;"/><polygon fill="#181818" points="284.37,237.2794,287.8815,228.0778,284.1018,232.2866,279.893,228.5069,284.37,237.2794" style="stroke:#181818;stroke-width:1;"/><text fill="#000000" font-family="sans-serif" font-size="13" lengthAdjust="spacing" textLength="95.3799" x="283.84" y="181.1045">SN and PN valid</text></g><!--SRC=[bL7TQi8m5BxtAGvU2hv0BuJIPXAGixAcWiWeMP9jXUvqsBGmnjxTquZIoaIyEpdVNxwazTex4EGFFtaOVsS0RPZcYpde5cBSvIfMWlVxnIiibokGc1LAILppxZ87HA1wsPNRU2DJnaQdWEP9ZCZK27AZ2LBNLyR1M-TzGqm_mu6RYgrCHFdqN60QmPVsvhEY3x0dpNlJaMN9c1LaV4Lsrxsxurva6vbmgtAQOxllkZ93-rk94vjHmGWIJSRLeHeDmalo_s4F69o_OFhut1EXEK26G8s7NjULlIPF_9ckoGxy4_TlTWG0]--></g></svg>